<?xml version="1.0" standalone="no"?>
<!DOCTYPE svg PUBLIC "-//W3C//DTD SVG 20010904//EN"
 "http://www.w3.org/TR/2001/REC-SVG-20010904/DTD/svg10.dtd">
<svg version="1.0" xmlns="http://www.w3.org/2000/svg"
 width="830.000000pt" height="830.000000pt" viewBox="0 0 830.000000 830.000000"
 preserveAspectRatio="xMidYMid meet">

<g transform="translate(0.000000,830.000000) scale(0.100000,-0.100000)"
fill="#ca1a72" stroke="none">
<path d="M850 6421 c-87 -27 -165 -95 -204 -180 l-21 -46 0 -2045 0 -2045 21
-46 c32 -69 91 -128 159 -161 l60 -28 990 0 c617 0 1003 4 1025 10 20 5 57 24
84 40 43 28 50 29 65 16 9 -8 41 -26 71 -40 l55 -26 995 0 c967 0 996 1 1038
20 24 11 56 29 72 40 l29 20 47 -30 c27 -17 64 -35 84 -40 22 -6 408 -10 1025
-10 l990 0 60 28 c68 33 127 92 159 161 l21 46 0 2045 0 2045 -21 46 c-30 64
-88 125 -148 157 l-51 27 -985 3 c-542 2 -1004 0 -1026 -3 -23 -3 -67 -21 -99
-40 l-57 -35 -32 25 c-75 57 -32 55 -1110 55 l-991 0 -55 -26 c-30 -14 -63
-32 -72 -41 -15 -14 -20 -13 -47 6 -16 12 -49 30 -73 41 -42 19 -70 20 -1038
19 -547 0 -1006 -4 -1020 -8z m2006 -212 c21 -11 35 -33 48 -71 5 -16 19 -18
105 -18 l99 0 12 35 c23 70 -46 65 1030 65 1076 0 1007 4 1030 -65 l12 -35 99
0 99 0 13 33 c18 41 45 65 77 67 14 1 97 2 185 1 l160 -1 22 -87 c13 -49 44
-131 69 -183 85 -172 238 -298 414 -341 78 -20 260 -17 340 5 133 36 255 114
327 207 75 97 123 231 123 341 l0 58 141 0 c77 0 149 -5 160 -10 52 -28 49 89
49 -2059 0 -1240 -4 -1999 -10 -2015 -22 -59 30 -56 -1001 -56 -519 -1 -958
-1 -975 0 -38 0 -84 42 -84 76 0 24 -1 24 -104 24 l-104 0 -12 -34 c-23 -72
48 -67 -1032 -67 -1074 1 -1005 -4 -1028 66 l-12 35 -104 0 c-103 0 -104 0
-104 -24 0 -15 -12 -34 -31 -50 -28 -24 -39 -26 -117 -26 -1109 -3 -1856 1
-1872 10 -53 28 -50 -93 -48 2074 l3 2005 23 23 c22 23 27 23 315 28 525 9
1660 2 1683 -11z m3989 -51 c-1 -154 -126 -290 -296 -320 -162 -28 -328 57
-393 203 -30 65 -46 167 -28 177 5 4 169 6 364 5 l353 -3 0 -62z"/>
<path d="M2939 5882 c-26 -23 -32 -36 -32 -71 0 -61 40 -101 101 -101 61 0
102 40 102 100 0 91 -102 133 -171 72z"/>
<path d="M5219 5881 c-64 -64 -20 -171 70 -171 61 0 102 40 103 99 0 38 -4 49
-31 73 -44 40 -101 39 -142 -1z"/>
<path d="M2952 5480 c-28 -17 -44 -49 -44 -85 0 -3 2 -19 6 -35 6 -33 56 -70
93 -70 108 0 142 150 46 199 -32 16 -64 13 -101 -9z"/>
<path d="M5224 5466 c-51 -51 -44 -124 16 -159 35 -21 62 -21 100 -2 37 19 50
43 50 90 0 47 -13 71 -50 90 -46 24 -78 19 -116 -19z"/>
<path d="M2941 5054 c-26 -22 -31 -33 -31 -71 0 -36 6 -50 29 -74 65 -64 171
-20 171 71 0 89 -100 133 -169 74z"/>
<path d="M5219 5051 c-64 -65 -20 -171 71 -171 60 0 100 41 100 103 0 38 -5
49 -31 71 -44 37 -101 36 -140 -3z"/>
<path d="M1785 5040 c-370 -41 -582 -411 -562 -980 9 -259 59 -447 158 -595
116 -173 271 -255 484 -255 293 0 488 153 589 463 59 180 78 511 42 722 -56
323 -207 544 -421 615 -49 16 -195 42 -215 38 -3 0 -36 -4 -75 -8z m207 -262
c169 -72 259 -336 245 -713 -10 -263 -56 -422 -152 -523 -59 -65 -128 -95
-216 -95 -134 -2 -243 82 -304 232 -98 239 -90 711 14 921 42 83 75 124 131
160 83 53 185 60 282 18z"/>
<path d="M4058 5039 c-260 -35 -440 -226 -518 -550 -43 -181 -49 -455 -15
-652 70 -403 290 -627 615 -627 124 0 186 13 275 56 220 107 345 343 377 716
32 374 -57 721 -231 897 -128 129 -307 187 -503 160z m216 -259 c63 -30 125
-96 162 -175 61 -127 84 -257 84 -475 0 -291 -53 -489 -162 -598 -59 -60 -116
-83 -203 -84 -93 0 -159 27 -219 92 -57 61 -92 130 -124 249 -24 91 -26 109
-26 336 0 227 2 245 26 336 32 119 67 188 124 249 69 74 143 103 242 94 29 -2
72 -13 96 -24z"/>
<path d="M2954 4651 c-78 -48 -56 -170 34 -187 89 -17 152 77 105 156 -30 51
-86 63 -139 31z"/>
<path d="M5245 4658 c-75 -41 -74 -148 2 -187 82 -42 175 48 138 135 -22 53
-92 79 -140 52z"/>
<path d="M5850 4260 l0 -120 446 0 446 0 -5 -22 c-4 -13 -126 -252 -272 -533
-147 -280 -314 -602 -372 -715 -58 -113 -110 -209 -114 -214 -20 -23 -2 -26
134 -26 l142 0 147 293 c81 160 253 501 383 757 l236 465 -3 115 -3 115 -582
3 -583 2 0 -120z"/>
<path d="M2939 4221 c-23 -23 -29 -38 -29 -71 0 -33 6 -48 29 -71 65 -64 171
-20 171 71 0 33 -6 48 -29 71 -23 23 -38 29 -71 29 -33 0 -48 -6 -71 -29z"/>
<path d="M5219 4221 c-63 -64 -20 -171 69 -171 70 0 118 60 100 127 -19 74
-114 98 -169 44z"/>
<path d="M2958 3824 c-35 -18 -48 -43 -48 -89 0 -47 13 -71 50 -90 75 -39 151
10 150 97 -1 75 -84 120 -152 82z"/>
<path d="M5241 3826 c-67 -37 -67 -140 -1 -179 35 -21 62 -21 100 -2 36 18 52
47 52 90 0 43 -16 72 -52 90 -35 18 -67 19 -99 1z"/>
<path d="M2936 3391 c-22 -23 -29 -40 -29 -71 0 -92 108 -136 174 -71 65 66
20 171 -73 171 -36 0 -50 -6 -72 -29z"/>
<path d="M5219 3391 c-64 -64 -20 -171 69 -171 77 0 125 69 97 136 -29 69
-114 87 -166 35z"/>
<path d="M2952 2990 c-21 -13 -35 -31 -38 -50 -12 -60 -1 -96 38 -120 37 -22
66 -25 101 -9 52 24 74 112 39 155 -38 47 -88 56 -140 24z"/>
<path d="M5238 2993 c-53 -33 -65 -112 -24 -156 65 -70 176 -30 176 63 0 52
-13 76 -50 95 -37 19 -68 19 -102 -2z"/>
<path d="M2939 2561 c-23 -23 -29 -38 -29 -71 0 -91 106 -135 171 -71 64 65
20 171 -71 171 -33 0 -48 -6 -71 -29z"/>
<path d="M5219 2561 c-64 -65 -20 -171 71 -171 33 0 48 6 71 29 64 65 20 171
-71 171 -33 0 -48 -6 -71 -29z"/>
</g>
</svg>
